<?xml version="1.0" standalone="no"?>
<!DOCTYPE svg PUBLIC "-//W3C//DTD SVG 20010904//EN"
 "http://www.w3.org/TR/2001/REC-SVG-20010904/DTD/svg10.dtd">
<svg version="1.0" xmlns="http://www.w3.org/2000/svg"
 width="1912.000000pt" height="1912.000000pt" viewBox="0 0 1912.000000 1912.000000"
 preserveAspectRatio="xMidYMid meet">
<metadata>
Created by potrace 1.14, written by Peter Selinger 2001-2017
</metadata>
<g transform="translate(0.000000,1912.000000) scale(0.100000,-0.100000)"
fill="#000000" stroke="none">
<path d="M13428 12515 c-2 -1 -68 -5 -148 -8 -80 -4 -161 -9 -180 -11 -19 -3
-55 -8 -80 -11 -64 -9 -261 -52 -323 -71 -294 -91 -503 -206 -663 -362 -144
-140 -217 -277 -228 -430 -10 -144 72 -294 200 -364 52 -28 175 -63 259 -73
28 -4 61 -8 75 -11 14 -2 122 -6 240 -9 118 -4 226 -8 238 -10 30 -5 55 -26
45 -36 -5 -5 -69 -21 -143 -38 -465 -101 -833 -279 -1058 -511 -198 -203 -268
-467 -175 -659 56 -117 205 -220 370 -257 180 -40 513 -12 786 67 40 11 92 26
117 33 199 56 467 197 578 304 149 143 208 285 217 522 2 67 -1 75 -23 53 -50
-50 -380 -293 -397 -293 -2 0 -36 -19 -77 -43 -132 -78 -340 -165 -459 -193
-173 -42 -220 -47 -389 -48 -142 -1 -186 3 -235 17 -220 67 -233 212 -37 407
177 176 503 357 802 445 48 14 97 27 109 30 13 2 30 6 39 9 9 3 35 7 57 11
322 46 384 74 454 209 49 92 40 146 -27 166 -22 7 -148 13 -317 15 -302 4
-606 13 -645 20 -14 2 -51 6 -82 10 -175 19 -262 73 -236 146 17 48 86 117
187 184 94 62 315 175 343 175 8 0 18 4 24 9 24 22 283 95 379 106 28 3 58 8
68 11 33 10 251 6 301 -6 67 -15 71 -19 39 -43 -102 -77 -158 -127 -198 -178
-25 -31 -45 -60 -45 -63 0 -3 35 17 78 45 42 28 179 101 304 162 151 74 231
119 239 134 15 28 15 274 -1 331 -17 64 -74 88 -225 98 -49 3 -105 7 -122 8
-18 2 -34 2 -35 1z"/>
<path d="M10180 12438 c-120 -31 -250 -87 -574 -249 -88 -44 -161 -78 -163
-75 -8 8 79 107 131 147 52 41 71 69 45 69 -23 0 -209 -121 -297 -193 -15 -12
-65 -61 -112 -108 l-86 -87 0 82 c0 111 -10 169 -41 235 -49 103 -139 161
-247 161 -160 0 -492 -147 -711 -315 -200 -153 -393 -399 -526 -674 -58 -119
-64 -162 -31 -227 32 -62 129 -156 194 -187 70 -33 139 0 301 146 88 79 118
123 92 133 -9 4 -40 -5 -69 -19 -66 -32 -99 -41 -131 -33 -31 8 -32 34 -5 117
47 138 179 293 411 484 103 84 309 201 397 225 151 40 200 -70 127 -285 -136
-402 -376 -881 -754 -1508 -164 -272 -168 -280 -152 -309 12 -24 113 -100 158
-121 33 -15 43 -3 151 175 l83 137 -12 40 c-11 39 -10 42 28 103 214 334 434
744 553 1031 l54 128 55 28 c31 15 126 67 211 116 250 142 365 197 623 299
195 78 254 89 286 57 32 -32 26 -98 -18 -196 -31 -70 -148 -303 -186 -370 -25
-44 -48 -87 -52 -95 -33 -71 -411 -702 -521 -870 -42 -63 -92 -146 -111 -183
l-35 -68 19 -35 c24 -44 114 -128 152 -141 53 -19 78 2 194 154 40 54 76 100
79 103 3 3 48 61 100 130 52 69 98 130 102 135 5 6 22 28 39 50 241 313 382
481 574 684 343 361 560 523 614 457 25 -30 -28 -141 -152 -317 -443 -635
-692 -1131 -711 -1418 -4 -57 11 -137 32 -170 47 -77 96 -104 187 -104 147 0
369 153 729 504 l163 158 -1 71 c-1 46 -5 70 -13 70 -6 0 -13 -3 -15 -7 -4
-10 -118 -115 -187 -173 -231 -194 -378 -245 -454 -160 -29 32 -29 36 -24 109
13 196 147 438 541 983 280 388 346 499 370 626 14 74 14 102 1 162 -12 56
-64 157 -99 195 -29 31 -38 34 -67 29 -182 -34 -564 -367 -1109 -965 -53 -59
-132 -149 -230 -264 -56 -66 -112 -131 -124 -145 -11 -14 -79 -96 -150 -182
-70 -87 -130 -158 -133 -158 -3 0 4 15 14 33 11 17 68 113 126 212 59 99 111
185 117 192 5 7 10 15 10 18 0 3 16 31 35 61 19 30 35 56 35 59 0 2 25 45 56
96 226 370 410 721 471 894 62 176 25 282 -111 320 -69 19 -156 17 -246 -7z"/>
<path d="M2069 12416 c-2 -2 -37 -6 -77 -10 -303 -26 -919 -165 -1077 -244
-141 -70 -414 -444 -415 -568 0 -83 71 -89 299 -28 53 15 110 30 126 34 51 13
218 72 263 92 23 11 42 26 42 33 0 15 -38 42 -74 51 -32 8 -33 17 -3 36 41 27
291 106 386 123 19 3 37 8 41 10 5 3 110 23 221 41 215 36 499 39 624 7 83
-22 162 -65 176 -97 9 -19 4 -33 -31 -87 -23 -35 -64 -110 -92 -167 -36 -72
-59 -107 -78 -117 -63 -32 -257 -90 -405 -119 -115 -23 -226 -42 -310 -52 -27
-3 -53 -8 -57 -11 -25 -15 3 24 75 103 45 49 109 121 142 159 33 38 84 96 113
128 71 81 70 92 -13 83 -195 -20 -380 -147 -623 -428 -49 -56 -84 -89 -101
-92 -37 -7 -99 -16 -151 -21 -117 -12 -269 -37 -309 -52 -95 -35 -88 -157 13
-207 21 -10 74 -24 118 -30 l80 -12 -55 -69 c-99 -128 -188 -259 -260 -385
-23 -41 -64 -146 -72 -187 -11 -54 -5 -163 11 -205 30 -78 81 -136 160 -183
58 -35 141 -65 220 -81 52 -10 325 -11 389 -1 87 13 298 69 354 93 29 13 58
24 63 24 23 0 245 113 325 165 123 80 234 194 275 280 41 89 44 186 8 261 -50
103 -177 196 -345 252 -76 25 -233 67 -305 81 -30 6 -66 14 -80 16 -55 11
-223 34 -253 35 -14 0 -16 4 -7 18 26 45 77 91 105 96 68 10 112 16 150 21 22
2 51 7 65 10 14 2 39 7 55 10 182 29 501 117 586 161 25 13 27 12 32 -16 12
-59 92 -73 202 -35 170 57 304 127 560 289 27 18 57 35 65 39 8 4 29 16 45 26
34 22 163 92 245 132 74 37 178 71 204 67 32 -5 24 -50 -19 -115 -39 -59 -206
-267 -430 -538 -487 -588 -631 -875 -560 -1119 25 -86 80 -151 155 -183 32
-13 134 -14 174 0 55 18 122 69 258 197 165 154 642 629 762 759 50 53 122
130 160 171 39 42 121 130 181 195 145 157 209 223 199 205 -5 -9 -54 -83
-110 -165 -113 -169 -284 -440 -284 -451 0 -4 -6 -15 -14 -23 -24 -27 -162
-301 -200 -397 -114 -290 -71 -517 108 -565 56 -15 151 -19 195 -7 144 40 348
185 589 420 l112 110 1 59 c1 33 -1 62 -3 64 -2 3 -39 -22 -81 -54 -206 -158
-401 -274 -480 -286 -85 -13 -138 35 -138 125 0 56 2 71 19 125 71 226 234
521 541 978 324 483 344 520 340 615 -6 139 -58 236 -119 225 -58 -10 -89 -41
-410 -413 -79 -91 -172 -198 -209 -239 -36 -41 -74 -83 -84 -95 -228 -263
-589 -628 -827 -837 -276 -241 -291 -252 -360 -264 -60 -11 -87 54 -55 132 22
51 281 436 394 583 406 530 557 763 596 915 9 33 18 107 20 164 5 137 -10 177
-81 211 -160 78 -673 -29 -1051 -219 l-114 -58 -19 36 c-61 117 -202 206 -390
247 -66 14 -399 30 -411 20z m-624 -1501 c344 -50 542 -110 614 -186 142 -148
-130 -376 -554 -464 -75 -16 -260 -15 -325 2 -125 31 -207 107 -212 195 -5 88
36 157 227 377 76 88 90 100 113 96 15 -3 77 -12 137 -20z"/>
<path d="M6968 12175 c-2 -1 -61 -5 -133 -9 -71 -3 -141 -7 -155 -10 -14 -3
-47 -7 -74 -11 -319 -40 -685 -178 -841 -318 -139 -124 -230 -347 -240 -588
-6 -133 31 -183 195 -263 204 -100 388 -159 600 -190 180 -28 360 -99 468
-186 54 -44 122 -122 122 -141 0 -5 -19 -22 -42 -39 -24 -16 -48 -34 -55 -40
-23 -19 -168 -88 -239 -113 -63 -23 -155 -45 -249 -61 -29 -5 -87 -12 -190
-23 -96 -10 -700 -11 -760 -2 -100 16 -98 37 8 79 125 49 22 81 -125 39 -111
-33 -200 -130 -257 -283 -35 -94 -13 -159 72 -213 71 -45 211 -83 367 -99 90
-10 426 -11 535 -1 242 20 515 77 704 147 362 133 571 480 444 739 -84 174
-369 344 -797 477 -61 19 -121 37 -135 39 -52 10 -288 83 -319 99 -38 20 -52
44 -52 88 0 117 201 250 494 328 128 34 239 57 312 65 28 3 61 8 75 10 43 9
232 19 356 19 137 1 164 -9 122 -43 -13 -11 -27 -20 -32 -21 -4 0 -42 -21 -85
-46 -126 -76 -236 -204 -174 -204 10 0 50 20 89 44 102 64 179 101 341 167 78
31 157 68 175 82 39 30 83 113 96 182 16 83 9 167 -14 192 -28 30 -123 71
-182 79 -26 3 -51 8 -55 10 -12 8 -363 26 -370 19z"/>
<path d="M15637 12174 c-1 -1 -46 -5 -100 -9 -54 -3 -106 -8 -115 -10 -9 -1
-44 -6 -77 -9 -33 -4 -67 -9 -75 -11 -8 -2 -31 -7 -50 -10 -58 -9 -253 -63
-332 -91 -180 -64 -339 -156 -419 -241 -116 -124 -196 -343 -205 -557 -3 -88
11 -128 62 -179 40 -40 242 -138 380 -185 110 -37 181 -54 403 -96 201 -39
360 -114 469 -223 39 -40 72 -79 72 -87 0 -19 -105 -94 -198 -140 -75 -38
-228 -92 -286 -101 -17 -3 -42 -8 -56 -10 -62 -13 -79 -15 -135 -21 -33 -3
-73 -8 -90 -10 -16 -3 -181 -7 -365 -9 -319 -4 -452 3 -474 25 -16 16 13 39
70 57 85 26 86 66 0 62 -116 -6 -203 -44 -268 -119 -55 -63 -117 -186 -123
-243 -8 -84 57 -156 178 -196 62 -21 81 -26 142 -36 17 -3 37 -8 45 -10 94
-25 574 -26 740 0 14 2 45 6 70 10 25 3 56 8 70 10 14 3 41 7 60 10 19 3 81
17 137 30 281 67 424 137 564 276 67 67 114 142 145 236 35 103 31 208 -9 296
-44 96 -184 219 -334 296 -24 11 -60 30 -80 40 -58 29 -208 89 -303 120 -96
31 -139 44 -325 96 -233 64 -265 83 -265 158 0 87 114 186 308 268 95 40 309
96 427 114 23 3 50 7 60 9 114 21 469 40 539 28 22 -4 41 -12 43 -18 2 -6 -40
-35 -93 -65 -135 -77 -234 -169 -234 -220 0 -20 53 -3 111 37 66 44 220 121
309 154 137 50 209 89 241 133 37 51 60 128 65 220 3 57 0 77 -17 103 -36 58
-144 94 -329 110 -73 6 -348 12 -353 8z"/>
<path d="M18197 12174 c-1 -1 -63 -4 -137 -8 -154 -7 -142 -5 -410 -53 -126
-22 -380 -112 -500 -176 -124 -67 -196 -128 -255 -217 -117 -176 -184 -495
-127 -606 29 -56 64 -84 184 -143 174 -85 386 -153 563 -181 286 -44 518 -161
606 -304 l18 -30 -66 -48 c-136 -99 -352 -181 -533 -203 -25 -3 -55 -7 -67 -9
-67 -13 -262 -21 -528 -21 -449 0 -499 12 -350 80 41 18 75 38 75 44 0 38
-180 16 -265 -34 -60 -35 -118 -110 -168 -217 -54 -115 -29 -198 80 -255 131
-69 314 -98 618 -98 151 0 371 11 385 20 3 2 30 6 60 10 30 4 100 15 155 26
55 11 114 23 130 26 17 3 38 9 48 14 9 5 17 7 17 5 0 -10 235 76 289 106 280
154 426 434 342 658 -76 203 -416 400 -930 541 -314 86 -357 101 -376 140 -19
36 -18 66 3 105 48 87 137 150 306 218 74 30 212 71 275 83 14 2 55 10 92 18
36 8 95 17 130 21 35 3 66 8 69 9 26 15 451 25 484 12 28 -11 9 -28 -99 -87
-153 -85 -276 -220 -199 -220 13 0 53 19 64 30 27 29 199 116 334 170 171 68
199 83 235 127 48 58 70 136 72 256 1 48 -3 63 -22 84 -45 47 -115 72 -264 92
-67 10 -330 22 -338 15z"/>
</g>
</svg>
